<svg xmlns="http://www.w3.org/2000/svg" xmlns:xlink="http://www.w3.org/1999/xlink" width="2000" zoomAndPan="magnify" viewBox="0 0 1500 1499.999933" height="2000" preserveAspectRatio="xMidYMid meet" version="1.0"><defs><clipPath id="f9ec58a616"><path d="M 1 2 L 1199.960938 2 L 1199.960938 1483 L 1 1483 Z M 1 2 " clip-rule="nonzero"/></clipPath><clipPath id="34870679f3"><rect x="0" width="1200" y="0" height="1485"/></clipPath></defs><g transform="matrix(1, 0, 0, 1, 97, 6)"><g clip-path="url(#34870679f3)"><g clip-path="url(#f9ec58a616)"><path fill="#e2b808" d="M 2.105469 736.742188 C 4.433594 689.082031 36.175781 647.914062 75.300781 623.046875 C 383.53125 425.945312 691.714844 228.667969 1000.058594 31.691406 C 1035.675781 8.242188 1080.957031 -6.015625 1123.003906 7.175781 C 1174.429688 21.851562 1201.210938 77.691406 1199.183594 128.207031 C 1199.664062 537.789062 1199.535156 947.324219 1199.902344 1356.917969 C 1200.492188 1401.535156 1181.765625 1450.933594 1139.59375 1471.460938 C 1095.871094 1494.0625 1043.074219 1480.585938 1003.644531 1455.238281 C 695.175781 1258.792969 386.753906 1062.121094 78.347656 865.609375 C 34.195312 838.8125 -1.773438 790.382812 2.105469 736.742188 Z M 2.105469 736.742188 " fill-opacity="1" fill-rule="nonzero"/></g></g></g><path fill="#0d0d0d" d="M 1398.980469 751.46875 L 1385.355469 713.070312 C 1377.925781 692.015625 1354.390625 674.671875 1333.332031 674.671875 L 1285.027344 674.671875 C 1249.105469 574.34375 1205.753906 452.957031 1192.128906 424.46875 C 1172.308594 379.875 1109.140625 360.058594 1074.457031 350.148438 C 1074.457031 350.148438 1016.242188 327.851562 821.773438 327.851562 C 627.308594 327.851562 570.328125 350.148438 570.328125 350.148438 C 529.453125 363.773438 472.476562 383.59375 450.179688 425.707031 C 439.035156 446.761719 394.441406 570.628906 358.523438 674.671875 L 311.453125 674.671875 C 290.398438 674.671875 266.863281 692.015625 259.429688 713.070312 L 245.804688 751.46875 C 238.375 772.527344 249.519531 789.867188 270.578125 789.867188 L 318.886719 789.867188 C 312.691406 807.207031 308.976562 817.117188 308.976562 817.117188 C 305.261719 823.308594 302.78125 851.800781 302.78125 860.46875 L 302.78125 1211.003906 C 302.78125 1233.300781 321.363281 1251.878906 343.65625 1251.878906 L 492.296875 1251.878906 C 514.589844 1251.878906 533.171875 1233.300781 533.171875 1211.003906 L 533.171875 1136.6875 L 1111.617188 1136.6875 L 1111.617188 1211.003906 C 1111.617188 1233.300781 1130.195312 1251.878906 1152.492188 1251.878906 L 1302.367188 1251.878906 C 1324.664062 1251.878906 1343.242188 1233.300781 1343.242188 1211.003906 L 1343.242188 860.46875 C 1343.242188 853.039062 1340.765625 823.308594 1337.050781 817.117188 C 1337.050781 817.117188 1333.332031 807.207031 1327.140625 789.867188 L 1374.207031 789.867188 C 1394.027344 789.867188 1405.175781 772.527344 1398.980469 751.46875 Z M 533.171875 966.992188 L 483.625 933.550781 C 391.964844 926.117188 380.816406 958.320312 361 923.640625 L 361 881.527344 C 361 840.652344 384.535156 839.414062 410.542969 839.414062 C 435.316406 839.414062 484.863281 860.46875 518.304688 875.332031 C 554.226562 891.433594 580.238281 877.808594 593.863281 931.070312 C 592.625 955.84375 579 966.992188 533.171875 966.992188 Z M 446.464844 690.773438 C 477.429688 564.433594 529.453125 476.492188 536.886719 455.433594 C 541.839844 440.570312 529.453125 413.320312 823.011719 413.320312 C 1116.570312 413.320312 1100.46875 452.957031 1101.707031 454.195312 C 1115.332031 482.683594 1169.832031 575.582031 1198.320312 690.773438 C 1198.320312 690.773438 1088.082031 705.640625 836.636719 705.640625 C 585.191406 705.640625 446.464844 690.773438 446.464844 690.773438 Z M 1052.160156 931.070312 C 1110.378906 859.230469 1091.796875 891.433594 1127.71875 875.332031 C 1159.921875 860.46875 1210.707031 839.414062 1235.480469 839.414062 C 1261.492188 839.414062 1285.027344 840.652344 1285.027344 881.527344 L 1285.027344 923.640625 C 1266.445312 957.082031 1250.34375 927.355469 1157.445312 936.027344 L 1111.617188 965.753906 C 1065.785156 966.992188 1036.058594 949.652344 1052.160156 931.070312 Z M 1052.160156 931.070312 " fill-opacity="1" fill-rule="nonzero"/></svg>